<?xml version="1.0" encoding="UTF-8"?>
<!DOCTYPE svg PUBLIC "-//W3C//DTD SVG 1.1//EN" "http://www.w3.org/Graphics/SVG/1.1/DTD/svg11.dtd">
<svg xmlns="http://www.w3.org/2000/svg" version="1.1" width="64px" height="64px" style="shape-rendering:geometricPrecision; text-rendering:geometricPrecision; image-rendering:optimizeQuality; fill-rule:evenodd; clip-rule:evenodd" xmlns:xlink="http://www.w3.org/1999/xlink">
<g><path style="opacity:1" fill="#d9d8d7" d="M 16.5,-0.5 C 24.1667,-0.5 31.8333,-0.5 39.5,-0.5C 44.743,1.12255 49.4096,3.78922 53.5,7.5C 54.1667,9.16667 54.8333,10.8333 55.5,12.5C 55.7394,14.4672 55.4061,16.3005 54.5,18C 55.9675,19.0975 56.8008,20.5975 57,22.5C 57.3333,22.1667 57.6667,21.8333 58,21.5C 58.8236,24.8823 58.657,28.2156 57.5,31.5C 55.8366,30.1246 54.5032,30.458 53.5,32.5C 52.8333,31.8333 52.1667,31.1667 51.5,30.5C 50.1502,31.9501 48.4835,32.6168 46.5,32.5C 46.3184,30.4086 46.6518,28.4086 47.5,26.5C 46.9724,24.6639 46.3058,22.9972 45.5,21.5C 44.3793,19.2585 43.2126,16.9252 42,14.5C 41.31,13.2617 40.81,13.2617 40.5,14.5C 39.5116,13.205 38.5116,11.8717 37.5,10.5C 36.1064,8.29181 34.1064,6.79181 31.5,6C 28.1426,4.98949 24.8093,4.32282 21.5,4C 22.7305,5.40476 24.0639,6.57143 25.5,7.5C 25.8333,8.16667 26.1667,8.83333 26.5,9.5C 25.391,9.44312 24.391,9.10978 23.5,8.5C 21.68,6.53893 19.68,6.2056 17.5,7.5C 16.5269,5.0521 16.1936,2.38544 16.5,-0.5 Z"/></g>
<g><path style="opacity:0.999" fill="#949492" d="M 37.5,10.5 C 33.6731,8.87661 29.6731,7.87661 25.5,7.5C 24.0639,6.57143 22.7305,5.40476 21.5,4C 24.8093,4.32282 28.1426,4.98949 31.5,6C 34.1064,6.79181 36.1064,8.29181 37.5,10.5 Z"/></g>
<g><path style="opacity:1" fill="#8d8c8a" d="M 23.5,8.5 C 21.5,8.5 19.5,8.5 17.5,8.5C 17.5,8.16667 17.5,7.83333 17.5,7.5C 19.68,6.2056 21.68,6.53893 23.5,8.5 Z"/></g>
<g><path style="opacity:1" fill="#334d97" d="M 14.5,14.5 C 15.6412,15.339 16.9745,16.0057 18.5,16.5C 19.7678,15.5721 21.1011,15.4054 22.5,16C 21.244,16.4169 20.5774,17.2502 20.5,18.5C 18.2928,17.2607 15.9595,16.7607 13.5,17C 14.4158,17.2784 15.0825,17.7784 15.5,18.5C 13.8007,18.4729 12.4674,17.8062 11.5,16.5C 12.2905,15.5987 13.2905,14.9321 14.5,14.5 Z"/></g>
<g><path style="opacity:1" fill="#1f84b4" d="M 17.5,8.5 C 19.5,8.5 21.5,8.5 23.5,8.5C 24.391,9.10978 25.391,9.44312 26.5,9.5C 27.791,9.26269 28.791,9.59603 29.5,10.5C 26.1501,10.335 22.8168,10.5017 19.5,11C 17.4156,11.6972 15.7489,12.8639 14.5,14.5C 13.2905,14.9321 12.2905,15.5987 11.5,16.5C 10.6252,18.5681 9.4585,20.5681 8,22.5C 7.33333,24.8333 7.33333,27.1667 8,29.5C 10,30.1667 12,30.8333 14,31.5C 15.562,35.8828 17.2287,40.2162 19,44.5C 23.0778,40.3852 25.9111,35.5519 27.5,30C 27.0946,29.0546 26.428,28.3879 25.5,28C 28.0405,26.9596 29.7071,25.1263 30.5,22.5C 32.7178,23.9242 34.2178,25.9242 35,28.5C 35.2022,26.7444 35.7022,25.0777 36.5,23.5C 37.1067,23.6236 37.44,23.9569 37.5,24.5C 36.5511,28.6565 35.8844,32.9898 35.5,37.5C 33.292,41.2771 30.6254,44.6104 27.5,47.5C 7.10563,49.4433 -1.56104,40.4433 1.5,20.5C 4.57279,13.6165 9.90613,9.61655 17.5,8.5 Z"/></g>
<g><path style="opacity:1" fill="#3d368c" d="M 29.5,10.5 C 34.8865,12.2559 38.2199,15.9226 39.5,21.5C 39.6621,23.5273 39.4955,25.5273 39,27.5C 38.4867,26.4734 37.9867,25.4734 37.5,24.5C 37.44,23.9569 37.1067,23.6236 36.5,23.5C 35.7022,25.0777 35.2022,26.7444 35,28.5C 34.2178,25.9242 32.7178,23.9242 30.5,22.5C 29.7071,25.1263 28.0405,26.9596 25.5,28C 26.428,28.3879 27.0946,29.0546 27.5,30C 25.9111,35.5519 23.0778,40.3852 19,44.5C 17.2287,40.2162 15.562,35.8828 14,31.5C 12,30.8333 10,30.1667 8,29.5C 7.33333,27.1667 7.33333,24.8333 8,22.5C 9.4585,20.5681 10.6252,18.5681 11.5,16.5C 12.4674,17.8062 13.8007,18.4729 15.5,18.5C 18.6342,19.8224 20.3009,19.8224 20.5,18.5C 20.5774,17.2502 21.244,16.4169 22.5,16C 21.1011,15.4054 19.7678,15.5721 18.5,16.5C 16.9745,16.0057 15.6412,15.339 14.5,14.5C 15.7489,12.8639 17.4156,11.6972 19.5,11C 22.8168,10.5017 26.1501,10.335 29.5,10.5 Z"/></g>
<g><path style="opacity:1" fill="#1e83b4" d="M 20.5,18.5 C 20.3009,19.8224 18.6342,19.8224 15.5,18.5C 15.0825,17.7784 14.4158,17.2784 13.5,17C 15.9595,16.7607 18.2928,17.2607 20.5,18.5 Z"/></g>
<g><path style="opacity:1" fill="#5a9cce" d="M 39.5,21.5 C 41.4407,25.0687 41.774,28.7353 40.5,32.5C 39.0613,34.3603 37.3947,36.027 35.5,37.5C 35.8844,32.9898 36.5511,28.6565 37.5,24.5C 37.9867,25.4734 38.4867,26.4734 39,27.5C 39.4955,25.5273 39.6621,23.5273 39.5,21.5 Z"/></g>
<g><path style="opacity:1" fill="#dbdad9" d="M 55.5,12.5 C 61.8182,22.144 62.1516,32.144 56.5,42.5C 51.5273,50.794 44.194,55.4607 34.5,56.5C 28.5,56.5 22.5,56.5 16.5,56.5C 16.5,54.5 16.5,52.5 16.5,50.5C 18.8897,50.8551 21.223,51.5217 23.5,52.5C 24.7261,52.4805 25.7261,52.1471 26.5,51.5C 26.8333,51.5 27.1667,51.5 27.5,51.5C 37.1859,49.3134 43.0192,43.3134 45,33.5C 45.4988,29.5138 45.6655,25.5138 45.5,21.5C 46.3058,22.9972 46.9724,24.6639 47.5,26.5C 46.6518,28.4086 46.3184,30.4086 46.5,32.5C 48.4835,32.6168 50.1502,31.9501 51.5,30.5C 52.1667,31.1667 52.8333,31.8333 53.5,32.5C 54.5032,30.458 55.8366,30.1246 57.5,31.5C 58.657,28.2156 58.8236,24.8823 58,21.5C 57.6667,21.8333 57.3333,22.1667 57,22.5C 56.8008,20.5975 55.9675,19.0975 54.5,18C 55.4061,16.3005 55.7394,14.4672 55.5,12.5 Z"/></g>
<g><path style="opacity:0.941" fill="#b0b0af" d="M 53.5,7.5 C 58.4634,11.4544 61.7967,16.4544 63.5,22.5C 63.5,27.5 63.5,32.5 63.5,37.5C 62.5577,40.6552 61.2243,43.6552 59.5,46.5C 59.5323,44.3812 58.5323,43.0478 56.5,42.5C 62.1516,32.144 61.8182,22.144 55.5,12.5C 54.8333,10.8333 54.1667,9.16667 53.5,7.5 Z"/></g>
<g><path style="opacity:1" fill="#504695" d="M 40.5,32.5 C 39.471,40.5766 35.1376,45.9099 27.5,48.5C 27.5,48.1667 27.5,47.8333 27.5,47.5C 30.6254,44.6104 33.292,41.2771 35.5,37.5C 37.3947,36.027 39.0613,34.3603 40.5,32.5 Z"/></g>
<g><path style="opacity:1" fill="#347394" d="M 1.5,20.5 C -1.56104,40.4433 7.10563,49.4433 27.5,47.5C 27.5,47.8333 27.5,48.1667 27.5,48.5C 26.791,49.404 25.791,49.7373 24.5,49.5C 21.5,49.5 18.5,49.5 15.5,49.5C 7.78357,48.1184 2.45024,43.7851 -0.5,36.5C -0.5,32.1667 -0.5,27.8333 -0.5,23.5C 0.166667,22.5 0.833333,21.5 1.5,20.5 Z"/></g>
<g><path style="opacity:0.716" fill="#c7c6c6" d="M 45.5,21.5 C 45.6655,25.5138 45.4988,29.5138 45,33.5C 43.0192,43.3134 37.1859,49.3134 27.5,51.5C 41.1054,45.6236 46.272,35.2902 43,20.5C 42.4275,18.3594 41.5942,16.3594 40.5,14.5C 40.81,13.2617 41.31,13.2617 42,14.5C 43.2126,16.9252 44.3793,19.2585 45.5,21.5 Z"/></g>
<g><path style="opacity:0.999" fill="#969695" d="M 56.5,42.5 C 58.5323,43.0478 59.5323,44.3812 59.5,46.5C 52.2592,57.1995 42.0925,61.8661 29,60.5C 25.1667,60.3333 21.3333,60.1667 17.5,60C 16.944,59.6174 16.6107,59.1174 16.5,58.5C 22.5,57.8333 28.5,57.1667 34.5,56.5C 44.194,55.4607 51.5273,50.794 56.5,42.5 Z"/></g>
<g><path style="opacity:1" fill="#bec0c0" d="M 15.5,49.5 C 18.5,49.5 21.5,49.5 24.5,49.5C 23.3398,51.2027 24.0065,51.8693 26.5,51.5C 25.7261,52.1471 24.7261,52.4805 23.5,52.5C 21.223,51.5217 18.8897,50.8551 16.5,50.5C 16.5,52.5 16.5,54.5 16.5,56.5C 22.5,56.5 28.5,56.5 34.5,56.5C 28.5,57.1667 22.5,57.8333 16.5,58.5C 15.5233,55.7131 15.19,52.7131 15.5,49.5 Z"/></g>
</svg>
